
Genre: Comedy | Drama | Romance
Language:English
 
http://www.imdb.com/title/tt1291549/

Source:LIMITED.720p.BluRay.x264-PSYCHD Thanks!

Format : AVI
Format/Info : Audio Video Interleave
File size : 1.26 GiB
Duration : 1h 37mn
Overall bit rate : 1 861 Kbps

Video
ID : 0
Format : MPEG-4 Visual
Format profile : Advanced Simple@L5
Format settings, BVOP : Yes
Format settings, QPel : No
Format settings, GMC : No warppoints
Format settings, Matrix : Default (H.263)
Codec ID : XVID
Codec ID/Hint : XviD
Duration : 1h 37mn
Bit rate : 1 403 Kbps
Width : 640 pixels
Height : 360 pixels
Display aspect ratio : 16:9
Frame rate : 23.976 fps
Color space : YUV
Chroma subsampling : 4:2:0
Bit depth : 8 bits
Scan type : Progressive
Bits/(Pixel*Frame) : 0.254
Stream size : 977 MiB (75%)
Writing library : XviD 1.2.1 (UTC 2008-12-04)

Audio
ID : 1
Format : AC-3
Format/Info : Audio Coding 3
Mode extension : CM (complete main)
Codec ID : 2000
Duration : 1h 37mn
Bit rate mode : Constant
Bit rate : 448 Kbps
Channel(s) : 6 channels
Channel positions : Front: L C R, Side: L R, LFE
Sampling rate : 48.0 KHz
Bit depth : 16 bits
Stream size : 312 MiB (24%)
Alignment : Aligned on interleaves
Interleave, duration : 42 ms (1.00 video frame)
Interleave, preload duration : 512 ms


Plot:
When an awkward teen meets his favorite porn star, whose career peaked in the '80s, an unexpected friendship follows as the young man gets a glimpse inside Monica Velour's current life as a single mom struggling to make ends meet
 
http://www.pix2links.com/images/57373323225971400689.png
 
http://www.pix2links.com/images/72198707583092273277.png
 
http://www.pix2links.com/images/24152388882610092977.png